{"title":"Winter.on.Fire.2015.DOCU.WEBRiP.XViD.ReLeNTLesS","uid":12860434,"size":1410498839,"categoryP":"video","categoryS":"movies","magnet":"?xt=urn:btih:e940ca8f17642aa560a10a496506729cadec9413&amp;dn=Winter.on.Fire.2015.DOCU.WEBRiP.XViD.ReLeNTLesS&amp;tr=udp%3A%2F%2Ftracker.leechers-paradise.org%3A6969&amp;tr=udp%3A%2F%2Fzer0day.ch%3A1337&amp;tr=udp%3A%2F%2Fopen.demonii.com%3A1337&amp;tr=udp%3A%2F%2Ftracker.coppersurfer.tk%3A6969&amp;tr=udp%3A%2F%2Fexodus.desync.com%3A6969","seeders":1,"leechers":1,"uploader":"TvTeam","files":4,"time":1448730854,"description":"------------------------------------------------------------------------\r\n\r  https://www.torrenting.com\r\n\r\nSign up is OPEN - for time being. Come and have fun.\r\n\r\n------------------------------------------------------------------------P0STER\r\n[img]http://i.imgur.com/xoEaVZQ.png[/img]\r\n\r\niMDB: http://www.imdb.com/title/tt4908644/\r\n\r\nGeneral\r\nComplete name               : Winter.on.Fire.2015.DOCU.WEBRiP.XViD.ReLeNTLesS.avi\r\nFormat                      : AVI\r\nFormat/Info                 : Audio Video Interleave\r\nFile size                   : 1.30 GiB\r\nDuration                    : 1h 37mn\r\nOverall bit rate            : 1 894 Kbps\r\n\r\nVideo\r\nID                          : 0\r\nFormat                      : MPEG-4 Visual\r\nFormat profile              : Advanced   \r\nFormat settings, BVOP       : 1\r\nFormat settings, QPel       : No\r\nFormat settings, GMC        : No warppoints\r\nFormat settings, Matrix     : Default (H.263)\r\nMuxing mode                 : Packed bitstream\r\nCodec ID                    : XVID\r\nCodec ID/Hint               : XviD\r\nDuration                    : 1h 37mn\r\nBit rate                    : 1 694 Kbps\r\nWidth                       : 720 pixels\r\nHeight                      : 400 pixels\r\nDisplay aspect ratio        : 16:9\r\nFrame rate                  : 23.976 fps\r\nColor space                 : YUV\r\nChroma subsampling          : 4:2:0\r\nBit depth                   : 8 bits\r\nScan type                   : Progressive\r\nCompression mode            : Lossy\r\nBits/(Pixel*Frame)          : 0.245\r\nStream size                 : 1.16 GiB (89%)\r\nWriting library             : XviD 1.2.1 (UTC 2008-12-04)\r\n\r\nAudio\r\nID                          : 1\r\nFormat                      : AC-3\r\nFormat/Info                 : Audio Coding 3\r\nMode extension              : CM (complete main)\r\nFormat settings, Endianness : Big\r\nCodec ID                    : 2000\r\nDuration                    : 1h 37mn\r\nBit rate mode               : Constant\r\nBit rate                    : 192 Kbps\r\nChannel(s)                  : 6 channels\r\nChannel positions           : Front: L C R, Side: L R, LFE\r\nSampling rate               : 48.0 KHz\r\nCompression mode            : Lossy\r\nStream size                 : 134 MiB (10%)\r\nAlignment                   : Aligned on interleaves\r\nInterleave, duration        : 64 ms (1.53 video frames)\r\nInterleave, preload duratio : 192 ms\r\nTitle                       : Winter.on.Fire.2015.ReLeNTLesS_new\r\nSamplee Included            : Yes\r\nSource                      : 1080p WEBRiP NTb Thanks \r\n\r\nPL0T\r\nA documentary on the unrest in Ukraine during 2013 and 2014, as student demonstrations supporting European integration grew into a violent revolution calling for the resignation of President Viktor F. Yanukovich.\r\n\r\nCAST\r\nDirector: Evgeny Afineevsky\r\nStars: Bishop Agapit, Serhii Averchenko, Kristina Berdinskikh\r\n\r\nN0TE\r\nHardcoded English subs for none English parts (see screens and sample).\r\n\r\nSCREENS\r\n[img]http://i.imgur.com/JLWw7bI.png[/img]\r\n[img]http://i.imgur.com/i08wHN2.png[/img]\r\n[img]http://i.imgur.com/MReLq5Q.png[/img]\r\n[img]http://i.imgur.com/nOhPezn.png[/img]\r\n[img]http://i.imgur.com/DKIOUKf.png[/img]\r\n[img]http://i.imgur.com/AtAj1nH.png[/img]\r\n\r\nTRAiLER\r\n\r\nGREETZ\r\n\r\n\r\nHIVE-CM8, Blackjesus, M0RPH, M00SE, MiLLENiUM,\r\n\r\nMANiX, TiTAN, Anonymous, TuX, \r\n\r\nACAB, KingStoner, FooKas, 4PlayHD, \r\n\r\nSoZE, GodFather, Cld.... \r\n\r\nKeep up the good work guyz","torrent":{"xt":"urn:btih:e940ca8f17642aa560a10a496506729cadec9413","amp;dn":"Winter.on.Fire.2015.DOCU.WEBRiP.XViD.ReLeNTLesS","amp;tr":["udp%3A%2F%2Ftracker.leechers-paradise.org%3A6969","udp%3A%2F%2Fzer0day.ch%3A1337","udp%3A%2F%2Fopen.demonii.com%3A1337","udp%3A%2F%2Ftracker.coppersurfer.tk%3A6969","udp%3A%2F%2Fexodus.desync.com%3A6969"],"infoHash":"e940ca8f17642aa560a10a496506729cadec9413","infoHashBuffer":{"type":"Buffer","data":[233,64,202,143,23,100,42,165,96,161,10,73,101,6,114,156,173,236,148,19]},"announce":[],"urlList":[]}}